<svg width="32" height="31" viewBox="0 0 32 31" fill="none" xmlns="http://www.w3.org/2000/svg">
<path fill-rule="evenodd" clip-rule="evenodd" d="M11.9727 9.35099C10.2637 9.14029 8.40277 9.75799 6.67383 10.9682C4.36858 12.5817 2.23552 15.2613 0.791018 18.642C0.701841 18.8513 0.765226 19.0945 0.945249 19.2336C1.12527 19.3728 1.37654 19.3728 1.55664 19.2338C3.64898 17.6108 5.28532 16.7464 6.4375 16.5502C7.58968 16.354 8.23594 16.6823 8.80078 17.6654C8.89509 17.8294 9.07391 17.9262 9.26281 17.9154C9.45172 17.9046 9.61835 17.7881 9.69336 17.6144C10.85 14.945 12.2486 12.6113 13.793 10.5968C13.8833 10.4786 13.9163 10.3264 13.8831 10.1814C13.8499 10.0365 13.7538 9.91384 13.6211 9.84679C13.0955 9.58399 12.5423 9.42089 11.9727 9.35069V9.35099ZM10.3711 10.392C11.1521 10.2508 11.8563 10.444 12.5469 10.6635C11.2642 12.4238 10.0926 14.3975 9.08399 16.6069C8.35927 15.8346 7.42817 15.3665 6.26953 15.5639C5.26724 15.7346 4.07651 16.3664 2.77344 17.2084C4.06027 14.9136 5.5844 12.951 7.24805 11.7865C8.30551 11.0464 9.36501 10.5739 10.3711 10.392ZM21.4609 17.8529C21.3494 17.852 21.2408 17.8885 21.1523 17.9565C19.1379 19.5009 16.8061 20.9013 14.1367 22.058C13.963 22.133 13.8466 22.2997 13.8358 22.4886C13.8251 22.6775 13.9219 22.8563 14.0859 22.9506C15.0691 23.5154 15.3974 24.1597 15.2012 25.3119C15.0049 26.4641 14.1405 28.1023 12.5176 30.1947C12.3785 30.3748 12.3785 30.6261 12.5177 30.8062C12.6568 30.9862 12.9 31.0496 13.1094 30.9604C16.49 29.5158 19.1697 27.3808 20.7832 25.0756C22.3967 22.7704 22.9555 20.2328 21.9043 18.1303C21.8205 17.9618 21.6492 17.8546 21.4609 17.8529ZM21.0879 19.2026C21.591 20.7831 21.278 22.6225 19.9629 24.5014C18.7982 26.1654 16.8364 27.691 14.541 28.9779C15.3832 27.6746 16.0148 26.4823 16.1855 25.4799C16.383 24.3204 15.916 23.3902 15.1426 22.6654C17.3517 21.6568 19.3277 20.4853 21.0879 19.2026ZM7.67578 18.9584L7.35742 19.5443L6.26563 21.5463L10.2773 25.5209L12.7754 24.058L7.67578 18.9584ZM7.91406 20.6108L11.1523 23.849L10.4355 24.269L7.50391 21.3647L7.91406 20.6108Z" fill="#C90404"/>
<path fill-rule="evenodd" clip-rule="evenodd" d="M6.0396 23.3406L3.6711 25.7092L4.1448 26.1829L6.5133 23.8143L6.0396 23.3406ZM3.1974 26.1829L2.7237 26.6566L3.1974 27.1303L3.6711 26.6566L3.1974 26.1829ZM6.987 24.288L3.1974 28.0777L3.6711 28.5514L7.4607 24.7617L6.987 24.288ZM2.7237 28.5514L2.25 29.0251L2.7237 29.4988L3.1974 29.0251L2.7237 28.5514ZM7.9344 25.2355L5.0922 28.0777L5.5659 28.5514L8.4081 25.7092L7.9344 25.2355ZM4.6185 28.5514L4.1448 29.0251L4.6185 29.4988L5.0922 29.0251L4.6185 28.5514Z" fill="#C90404"/>
<path fill-rule="evenodd" clip-rule="evenodd" d="M22.2832 2.49146C22.2049 2.49261 22.128 2.51213 22.0586 2.54846C15.482 5.88316 10.9059 12.0476 8.52344 17.8336C8.44631 18.0206 8.48948 18.2357 8.63281 18.3785L13.3691 23.1149C13.5119 23.2582 13.727 23.3013 13.9141 23.2242C19.6982 20.8426 25.9622 16.2694 29.2988 9.68905C29.3794 9.52961 29.3689 9.33926 29.2711 9.18972C29.1733 9.04018 29.0032 8.95418 28.8248 8.96411C28.6464 8.97404 28.4868 9.07839 28.4062 9.23785C25.2686 15.4258 19.3432 19.8148 13.8223 22.1539L9.59375 17.9254C11.9321 12.4099 16.3187 6.58026 22.5098 3.44096C22.72 3.33814 22.8308 3.10328 22.7764 2.87566C22.7221 2.64805 22.5172 2.48855 22.2832 2.49176V2.49146Z" fill="#C90404"/>
<path fill-rule="evenodd" clip-rule="evenodd" d="M23.084 2.05602C23.0195 2.05682 22.9559 2.07006 22.8965 2.09502C22.3636 2.32122 21.4082 2.89702 21.0371 3.08532C20.8934 3.15801 20.7935 3.29547 20.7687 3.45461C20.7439 3.61374 20.7973 3.77508 20.9121 3.88802L27.9336 10.7982C28.0474 10.9101 28.2078 10.961 28.3653 10.9351C28.5228 10.9093 28.6584 10.8098 28.7305 10.6673C28.8212 10.4882 29.0147 10.1592 29.2051 9.82752C29.3955 9.49572 29.5822 9.16682 29.6973 8.89582C29.7771 8.70848 29.7354 8.49141 29.5918 8.34702L23.4453 2.20252C23.3496 2.10681 23.2193 2.05395 23.084 2.05602ZM23 3.17122L28.623 8.79232C28.5349 8.96202 28.4596 9.11742 28.3379 9.32942C28.2749 9.43912 28.231 9.52242 28.1699 9.62822L22.0976 3.65172C22.443 3.46102 22.7407 3.30322 23 3.17122Z" fill="#C90404"/>
<path fill-rule="evenodd" clip-rule="evenodd" d="M30.75 0.499268C27.8703 0.499268 25.2262 1.10147 22.8301 2.11847C22.6776 2.18357 22.5673 2.32003 22.5356 2.48278C22.5039 2.64553 22.5549 2.8134 22.6719 2.93097L28.8476 9.12427C28.9652 9.24207 29.1336 9.29368 29.297 9.26195C29.4603 9.23022 29.5972 9.11931 29.6621 8.96607C30.6815 6.56427 31.2499 3.87517 31.25 0.999268C31.25 0.723137 31.0261 0.499295 30.75 0.499268ZM30.1953 1.55597C30.1328 3.80237 29.6985 5.90177 28.9726 7.83137L23.957 2.80597C25.8834 2.07337 27.956 1.62167 30.1953 1.55597Z" fill="#C90404"/>
<path fill-rule="evenodd" clip-rule="evenodd" d="M19.0325 9.14826C20.0059 8.17486 21.6002 8.17486 22.5736 9.14826L22.5736 9.14966C23.5469 10.123 23.5455 11.716 22.5722 12.6894C21.5988 13.6613 20.0059 13.6627 19.0325 12.6894C18.0592 11.716 18.0592 10.1216 19.0325 9.14826ZM21.8651 11.9809C22.4563 11.3897 22.4577 10.4466 21.8665 9.85536L21.8664 9.85396C21.2752 9.26276 20.3308 9.26276 19.7396 9.85396C19.1484 10.4452 19.1484 11.3896 19.7396 11.9809C20.3308 12.5734 21.2738 12.5721 21.8651 11.9809Z" fill="#C90404"/>
</svg>
