<svg width="450" height="629" viewBox="0 0 450 629" fill="none" xmlns="http://www.w3.org/2000/svg">
<path fill-rule="evenodd" clip-rule="evenodd" d="M277.006 135H109.01C93.5688 135 81 149.66 81 167.724V596.276C81 614.357 93.5379 629 109.01 629H277.006C292.447 629 305 614.34 305 596.276V167.773C305 149.66 292.462 135 277.006 135ZM235.007 159.628C236.608 159.46 238.141 160.348 238.866 161.863C239.591 163.378 239.358 165.207 238.279 166.466C237.2 167.725 235.498 168.153 233.996 167.544C232.495 166.935 231.503 165.414 231.502 163.717C231.451 162.684 231.793 161.672 232.45 160.905C233.108 160.138 234.028 159.679 235.007 159.628ZM214.702 160.443H171.298C169.592 160.443 168.21 161.901 168.21 163.7C168.21 165.5 169.592 166.958 171.298 166.958H214.702C216.408 166.958 217.79 165.5 217.79 163.7C217.79 161.901 216.408 160.443 214.702 160.443ZM193.008 611.636C182.57 611.636 174.108 601.749 174.108 589.549C174.108 577.349 182.57 567.478 193.008 567.478C203.446 567.478 211.907 577.365 211.907 589.549C211.907 601.733 203.446 611.473 193.008 611.473V611.636ZM95.0048 541.595H290.995V173.441H95.0048V541.595Z" fill="#BDBDBD"/>
<rect x="99" y="261" width="159" height="35" fill="#F3F3F3"/>
<rect x="99" y="261" width="31" height="35" fill="#D9E1E4"/>
<path d="M142 274H216" stroke="#D9E1E4" stroke-width="0.16"/>
<path d="M142 283H195" stroke="#D9E1E4" stroke-width="0.16"/>
<path d="M232 278H248" stroke="#D9E1E4" stroke-width="0.16"/>
<rect x="99" y="298" width="159" height="35" fill="white"/>
<rect x="99" y="298" width="31" height="35" fill="#F3F3F3"/>
<path d="M142 311H216" stroke="#D9E1E4" stroke-width="0.16"/>
<path d="M142 321H195" stroke="#D9E1E4" stroke-width="0.16"/>
<path d="M232 316H248" stroke="#D9E1E4" stroke-width="0.16"/>
<rect x="99" y="335" width="159" height="35" fill="#F3F3F3"/>
<rect x="99" y="335" width="31" height="35" fill="#D9E1E4"/>
<path d="M142 349H216" stroke="#D9E1E4" stroke-width="0.16"/>
<path d="M142 358H195" stroke="#D9E1E4" stroke-width="0.16"/>
<path d="M232 353H248" stroke="#D9E1E4" stroke-width="0.16"/>
<rect x="99" y="373" width="159" height="35" fill="white"/>
<rect x="99" y="373" width="31" height="35" fill="#F3F3F3"/>
<path d="M142 386H216" stroke="#D9E1E4" stroke-width="0.16"/>
<path d="M142 395H195" stroke="#D9E1E4" stroke-width="0.16"/>
<path d="M232 390H248" stroke="#D9E1E4" stroke-width="0.16"/>
<rect x="125" y="410" width="159" height="35" fill="#FDBF14"/>
<rect x="125" y="410" width="31" height="35" fill="#FECE40"/>
<path d="M167 423H241" stroke="white" stroke-width="0.16"/>
<path d="M168 433H221" stroke="white" stroke-width="0.16"/>
<path d="M257 428H274" stroke="white" stroke-width="0.16"/>
<rect x="99" y="448" width="159" height="35" fill="white"/>
<rect x="99" y="448" width="31" height="35" fill="#F3F3F3"/>
<path d="M142 461H216" stroke="#D9E1E4" stroke-width="0.16"/>
<path d="M142 470H195" stroke="#D9E1E4" stroke-width="0.16"/>
<path d="M232 465H248" stroke="#D9E1E4" stroke-width="0.16"/>
<rect x="99" y="485" width="159" height="35" fill="#F3F3F3"/>
<rect x="99" y="485" width="31" height="35" fill="#D9E1E4"/>
<path d="M142 498H216" stroke="#D9E1E4" stroke-width="0.16"/>
<path d="M142 509H195" stroke="#D9E1E4" stroke-width="0.16"/>
<path d="M232 502H248" stroke="#D9E1E4" stroke-width="0.16"/>
<path d="M384.993 450.688C397.002 458.851 397.002 472.174 384.993 480.32L325.801 520.515C313.807 528.678 304 522.001 304 505.691V425.318C304 408.991 313.807 402.33 325.801 410.477L384.993 450.688Z" fill="#9FC400"/>
<path d="M343.599 476.747C345.364 482.713 341.137 489.898 334.202 492.789C327.266 495.68 320.269 493.224 318.427 487.241C316.585 481.259 320.888 474.123 327.824 471.216C334.759 468.308 341.85 470.798 343.599 476.747Z" fill="white"/>
<path d="M343.396 480H334V428L355 441.995L350.416 451.763L343.396 447.077V480Z" fill="white"/>
<path d="M449.991 371.901C450.191 376.158 447.079 379.782 443.035 380H123.979C119.933 379.782 116.817 376.161 117.008 371.901V301.099C116.817 296.839 119.933 293.218 123.979 293H443.035C447.075 293.227 450.183 296.845 449.991 301.099V371.901Z" fill="#F3F3F3"/>
<path d="M196 293H123.997C119.941 293.218 116.816 296.839 117.008 301.099V371.901C116.816 376.161 119.941 379.782 123.997 380H196V293Z" fill="#C90404"/>
<path d="M216 321H295" stroke="#D8E5ED" stroke-width="0.33"/>
<path d="M304 321H344" stroke="#D8E5ED" stroke-width="0.33"/>
<path d="M262 338H294" stroke="#D8E5ED" stroke-width="0.33"/>
<path d="M275 356H293" stroke="#D8E5ED" stroke-width="0.33"/>
<path d="M246 338H254" stroke="#D8E5ED" stroke-width="0.33"/>
<path d="M216 333.5H239" stroke="#D8E5ED" stroke-width="0.33"/>
<path d="M216 356H268" stroke="#D8E5ED" stroke-width="0.33"/>
<path d="M301 338H340" stroke="#D8E5ED" stroke-width="0.33"/>
<path d="M300 356H342" stroke="#D8E5ED" stroke-width="0.33"/>
<rect x="96" y="174" width="247" height="67" rx="1.48" fill="#D8E5ED"/>
<path d="M123 208H245" stroke="#C90404" stroke-width="0.33"/>
<path fill-rule="evenodd" clip-rule="evenodd" d="M319 203.484C319.009 212.044 312.3 218.991 304.016 219C295.732 219.009 289.009 212.077 289 203.516C288.991 194.956 295.7 188.009 303.984 188C307.962 187.996 311.779 189.624 314.595 192.528C317.411 195.432 318.996 199.373 319 203.484V203.484Z" stroke="#C90404" stroke-width="0.33"/>
<path d="M313 215L323 226" stroke="#C90404" stroke-width="0.33"/>
<path d="M226.864 119L235 127.324L223.089 131L216 122.597L226.864 119Z" fill="#77BC4A"/>
<path d="M229.387 123.501C230.397 123.336 234.825 118 234.825 118C236.363 118.764 237.344 120.408 237.342 122.213V124.674L250.034 129.631C251.036 130.046 251.765 130.984 251.961 132.109C252.211 133.744 251.248 135.313 249.739 135.727C246.317 136.672 242.786 137.095 239.252 136.982L218.761 136.321C217.647 136.284 216.601 135.739 215.891 134.826C215.18 133.912 214.873 132.718 215.048 131.547L215.669 127.367C215.772 126.674 216.143 126.059 216.692 125.67C217.241 125.28 217.918 125.153 218.559 125.319C220.392 125.814 222.645 126.393 223.22 126.492C224.043 126.591 229.387 123.501 229.387 123.501Z" fill="#3C3C3B"/>
<path d="M249.734 136.723C250.611 136.48 251.342 135.819 251.722 134.922C252.102 134.025 252.092 132.989 251.694 132.102C248.058 134.923 243.579 136.137 239.157 135.499L215.048 132V132.391C214.873 133.595 215.181 134.823 215.892 135.762C216.603 136.701 217.65 137.261 218.765 137.3L239.282 137.98C242.803 138.101 246.322 137.678 249.734 136.723Z" fill="#FCD765"/>
<path d="M238 125L235 128" stroke="#E6E7E8" stroke-width="0.57" stroke-linecap="round"/>
<path d="M240 126L237 129" stroke="#E6E7E8" stroke-width="0.57" stroke-linecap="round"/>
<path d="M243 128L240 130" stroke="#E6E7E8" stroke-width="0.57" stroke-linecap="round"/>
<path d="M245 128L243 130" stroke="#E6E7E8" stroke-width="0.57" stroke-linecap="round"/>
<path d="M254.384 120.541C261.846 118.06 266.123 110 266.123 110L266.969 127.385C266.969 127.385 267.739 135.25 261.569 132.363C255.399 129.477 236.814 130.482 236.814 130.482C236.814 130.482 234.983 122.73 236.814 121.514C240.368 119.114 249.461 122.163 254.384 120.541Z" fill="#F4633B"/>
<path d="M262.283 119.901C262.283 118.839 258 113.465 258 113.465C258.942 112.007 260.609 111.242 262.283 111.502L264.58 111.872L271.113 99.6109C271.649 98.6455 272.63 98.0368 273.704 98.0019C275.31 97.9447 276.676 99.2054 276.808 100.866C277.165 104.51 277.024 108.188 276.389 111.791L272.68 132.708C272.478 133.842 271.817 134.831 270.864 135.425C269.911 136.019 268.759 136.16 267.699 135.814L263.912 134.559C263.293 134.352 262.784 133.889 262.505 133.28C262.225 132.671 262.201 131.969 262.438 131.341C263.167 129.539 263.99 127.318 264.223 126.803C264.393 125.838 262.283 119.901 262.283 119.901Z" fill="#3C3C3B"/>
<path d="M276.831 100.809C276.664 99.1699 275.263 97.9425 273.629 98.0021C273.329 98.0016 273.032 98.0507 272.748 98.1473C274.823 102.275 275.269 107.042 273.997 111.488L267 135.684L267.352 135.813C268.446 136.161 269.635 136.019 270.618 135.423C271.601 134.828 272.283 133.836 272.492 132.7L276.319 111.73C276.998 108.132 277.17 104.455 276.831 100.809Z" fill="#FCD765"/>
<path d="M263 111L266 114" stroke="#E6E7E8" stroke-width="0.57" stroke-linecap="round"/>
<path d="M265 108L268 111" stroke="#E6E7E8" stroke-width="0.57" stroke-linecap="round"/>
<path d="M267 106L269 108" stroke="#E6E7E8" stroke-width="0.57" stroke-linecap="round"/>
<path d="M267.07 104L268.93 106" stroke="#E6E7E8" stroke-width="0.57" stroke-linecap="round"/>
<path d="M147.389 104.265C173.019 79.8893 190.332 62.6646 200.087 75.2035C212.964 90.0935 210.104 90.5343 227 119.71L219.271 129L191.136 97.3589L163.744 124.771L127.092 123.824L124 105.734C131.042 111.508 141.044 110.879 147.389 104.265Z" fill="#1C507F"/>
<path opacity="0.1" d="M147.389 104.265C173.019 79.8893 190.332 62.6646 200.087 75.2035C212.964 90.0935 210.104 90.5343 227 119.71L219.271 129L191.136 97.3589L163.744 124.771L127.092 123.824L124 105.734C131.042 111.508 141.044 110.879 147.389 104.265Z" fill="black"/>
<path d="M216 66.9369L210.415 64.8306L207.755 62.9186L208.206 61.2173C208.118 60.946 207.906 60.7383 207.64 60.6635C207.375 60.5887 207.091 60.6566 206.883 60.8447L202.216 65.2194L198.763 70.5178L171.957 71.2307L162.981 56L155 56.9074C155 56.9074 160.601 78.4572 165.377 82.5889C168.488 84.5494 191.373 78.9757 199.758 76.8531C204.425 75.6541 204.332 79.1863 210.462 74.2444C211.535 73.3857 212.017 71.8302 213.137 70.4367C214.74 68.3466 216 66.9369 216 66.9369Z" fill="#B27247"/>
<path d="M194.471 69.9004L172.937 70.8561L162.684 48L150 56.9092C150 56.9092 159.677 80.3323 164.445 84.4467C167.561 86.4229 184.701 82.6325 193.178 80.4943C197.042 79.5062 195.983 73.0105 195.469 70.7752C195.404 70.259 194.972 69.8793 194.471 69.9004Z" fill="#B51D1D"/>
<path d="M212.471 57.2332L202.21 70.3695C201.93 70.6887 201.93 71.1997 202.21 71.5189L205.742 75L217 60.7308L213.482 57.2332C213.202 56.9223 212.751 56.9223 212.471 57.2332Z" fill="#3C3C3B"/>
<path d="M202.521 70.11C202.386 69.9832 202.373 69.7725 202.492 69.6299L212.187 58.0207C212.315 57.8664 212.547 57.8521 212.694 57.9894L215.405 60.5229C215.541 60.6497 215.554 60.8604 215.435 61.003L205.74 72.6122C205.611 72.7664 205.379 72.7808 205.232 72.6435L202.521 70.11Z" fill="white"/>
<path d="M205.215 74.435C205.095 74.3227 205.083 74.1361 205.189 74.0098L216.629 60.3105C216.743 60.1739 216.949 60.1612 217.079 60.2827L217.896 61.0463C218.016 61.1587 218.028 61.3453 217.922 61.4715L206.482 75.1709C206.368 75.3075 206.162 75.3202 206.032 75.1987L205.215 74.435Z" fill="#BCBEC0"/>
<path d="M215.331 61.1019L214.119 62.3647C214.043 62.4339 214 62.5288 214 62.6277C214 62.7267 214.043 62.8215 214.119 62.8908C214.191 62.9605 214.29 63 214.394 63C214.498 63 214.597 62.9605 214.669 62.8908L215.881 61.628C215.957 61.5588 216 61.464 216 61.365C216 61.266 215.957 61.1712 215.881 61.1019C215.727 60.966 215.485 60.966 215.331 61.1019Z" fill="white"/>
<path d="M213.417 64.0968L211.091 66.4916C210.97 66.6099 210.97 66.7934 211.091 66.9117C211.152 66.9682 211.235 67 211.322 67C211.409 67 211.492 66.9682 211.553 66.9117L213.91 64.517C214.03 64.4033 214.03 64.2245 213.91 64.1108C213.851 64.0433 213.762 64.0028 213.668 64.0001C213.573 63.9974 213.481 64.0328 213.417 64.0968Z" fill="white"/>
<path d="M209.001 66.3918C209.01 66.0131 209.158 65.6538 209.412 65.3929C209.666 65.1319 210.006 64.9908 210.357 65.0005L214.711 65.145C215.437 65.1744 216.009 65.824 216 66.6086C215.973 67.3927 215.371 68.0102 214.644 67.9999L210.274 67.8553C209.924 67.8459 209.593 67.6858 209.354 67.4107C209.114 67.1357 208.987 66.7687 209.001 66.3918Z" fill="#B27247"/>
<path d="M208 69.3816C208.028 68.5958 208.632 67.98 209.356 68.0005L213.726 68.1459C214.077 68.1503 214.411 68.3098 214.651 68.5876C214.891 68.8654 215.017 69.2374 214.998 69.6178C214.99 69.9971 214.841 70.3567 214.586 70.6162C214.331 70.8758 213.991 71.0136 213.642 70.9989L209.29 70.8536C208.939 70.844 208.606 70.6836 208.364 70.4075C208.122 70.1314 207.991 69.7624 208 69.3816Z" fill="#B27247"/>
<path d="M207.026 70.9117C207.095 70.6167 207.301 70.3572 207.596 70.1904C207.892 70.0235 208.254 69.963 208.602 70.0221L212.923 70.7682C213.27 70.8237 213.577 70.9945 213.774 71.2425C213.972 71.4905 214.044 71.7951 213.974 72.0883C213.905 72.3833 213.699 72.6428 213.404 72.8096C213.108 72.9765 212.746 73.037 212.398 72.9779L208.077 72.2318C207.73 72.1763 207.423 72.0055 207.226 71.7575C207.028 71.5095 206.956 71.2049 207.026 70.9117Z" fill="#B27247"/>
<path d="M207.051 72.6554C207.136 72.4104 207.317 72.2093 207.553 72.0967C207.789 71.9841 208.061 71.9692 208.308 72.0554L211.339 73.1054C211.585 73.1872 211.788 73.3635 211.902 73.5948C212.016 73.826 212.031 74.0929 211.945 74.3355C211.772 74.844 211.217 75.1188 210.702 74.9505L207.672 73.9005C207.156 73.7229 206.88 73.1687 207.051 72.6554Z" fill="#B27247"/>
<path opacity="0.05" d="M190.13 90C202.808 104.503 223 124.486 223 124.486L218.544 127L191.589 96.8328L164.436 123.89L128 122.955C128 122.955 179.91 119.587 190.13 90Z" fill="black"/>
<path d="M165 46V59" stroke="#E6E7E8" stroke-width="0.57" stroke-linecap="round"/>
<path d="M166 45C166 45 169.789 56.4205 168.85 63" stroke="#E6E7E8" stroke-width="0.57" stroke-linecap="round"/>
<path d="M154.879 28.1282L156.07 25.7492C156.742 24.3604 157.033 22.8016 156.909 21.2483L156.161 12.793C155.921 9.98786 157.076 7.2514 159.214 5.55949L164.161 1.65336C166.822 -0.490208 170.5 -0.555407 173.229 1.49262L180.724 7.05442C183.546 9.12047 184.708 12.9172 183.564 16.3295L183.335 17.0367C183.197 17.4837 183.09 17.9403 183.014 18.4031L181.762 26.6172C181.714 27.6511 180.954 28.4921 179.976 28.5944L178.923 28.723L175.87 34.3973C175.271 35.5544 174.249 36.4032 173.04 36.7463C171.832 37.0894 170.543 36.897 169.473 36.2137L168.573 35.5868L168.389 35.9244C167.298 37.953 165.424 39.3826 163.253 39.8422C161.082 40.3019 158.829 39.7462 157.077 38.3195C154.061 35.9562 153.128 31.6317 154.879 28.1282Z" fill="#C68152"/>
<path d="M120 113.059V122.582C120 129.877 124.228 135.745 132.236 136.835C140.243 137.925 175.438 133.18 201.668 135.024C227.898 136.867 252.369 132.843 254.036 130.695C255.702 128.546 257.384 122.261 254.205 119.648C251.027 117.035 201.869 112.497 201.869 112.497C190.466 112.497 164.097 112.225 152.818 110.413L147.341 104L120 113.059Z" fill="#1C507F"/>
<path opacity="0.05" d="M132.349 137.821C127.223 137.43 122.788 133.983 121 129C127.729 136.228 135.167 137.407 144.591 134.604C163.224 129.064 190.418 136.977 201.69 133.808C212.962 130.64 255.587 129.573 253.954 131.723C252.322 133.872 227.976 137.868 201.69 136.021C175.404 134.174 140.341 138.967 132.349 137.821Z" fill="black"/>
<path d="M155.801 29.0059C143.276 29.8536 122.176 43.6771 118.042 72.3347C113.908 100.992 116.244 124.499 123.298 125.819C130.352 127.14 156.016 121.287 154.679 106.258C153.342 91.2279 140.94 88.7664 160.442 66.9227C164.157 62.8722 166.159 57.3941 165.99 51.7462C165.391 38.2324 158.629 28.7288 155.801 29.0059Z" fill="#B51D1D"/>
<path d="M163.29 31C162.593 34.4075 163.16 37.936 164.898 41L168 36L163.29 31Z" fill="#B27247"/>
<path d="M166.682 49C166.682 49 161.154 32.6727 139.557 38.9587C137.641 39.6092 135.578 39.5575 133.693 38.8118C132.17 38.6975 132.962 30.6481 138.034 30.6481C140.318 30.6481 136.861 28.0847 140.791 25.7499C146.483 22.792 153.257 23.6321 158.169 27.9051C163.484 32.5421 171.084 47.1877 166.682 49Z" fill="#D63434"/>
<path d="M197.594 76.1616L198.186 69.5647L203.25 64.4033L208.751 63C208.768 64.2984 208.031 65.4808 206.881 66.0001L204.575 67.0162L207.909 67.7904L209 70.0324L208.237 74.3228C208.237 74.3228 204.684 82.0327 192.967 85.2747C181.249 88.5167 181 79.8391 181 79.8391L197.594 76.1616Z" fill="#C68152"/>
<path d="M147.793 38.3172C154.215 36.5526 159.851 42.4129 161.314 49.3902C162.177 53.5506 162.3 77.5745 162.3 77.5745L192.454 76.0528C192.454 76.0528 193.732 84.6975 192.377 85.1508C187.233 86.8668 152.521 97.616 148.824 92.7432C145.744 88.5828 142.895 72.6856 140.339 62.762C136.242 46.7514 142.356 39.8389 147.793 38.3172Z" fill="#D63434"/>
<path d="M116.651 548.399L130.258 541.653C130.258 541.653 138.337 529.901 136.807 521.465L126.891 506L105.267 507.823L96 539.316C97.4208 543.627 100.49 547.082 104.434 548.81C108.379 550.539 112.824 550.378 116.651 548.366V548.399Z" fill="#44448C"/>
<path d="M109.686 465.278L105.302 466.26C101.204 467.031 97.2348 468.426 93.5213 470.401C89.7297 472.464 88.6531 474.657 88.0445 479.109C86.2919 490.337 86.7486 501.823 89.3864 512.859L98.9668 502.417L102.836 515.183C102.836 515.183 96.4235 532.239 96.127 538C105.177 526.232 135.541 520.077 135.541 520.077L132.67 511.419L133.653 508.669L140.331 507.032C144.232 492.432 140.581 472.104 136.68 468.879C132.155 465.147 120.562 465 120.562 465L109.686 465.278Z" fill="#D63434"/>
<g style="mix-blend-mode:multiply" opacity="0.05">
<path d="M101 505L103.737 514.506L115 516L101 505Z" fill="#262223"/>
</g>
<g style="mix-blend-mode:multiply" opacity="0.05">
<path d="M133 485C132.155 492.211 131.733 499.469 131.738 506.734L128 510C130.305 503.517 133 485 133 485Z" fill="#262223"/>
</g>
<path d="M130.808 507C130.808 507 126.58 508.742 123.654 510.255C114.877 514.634 104.199 521.649 104.199 521.649L96.6467 528.599C96.189 529.01 95.8982 529.593 95.8348 530.227C95.7123 531.415 95.3446 533.612 95.0689 535.224C94.8389 536.485 95.1922 537.786 96.0186 538.723L96.2638 539L106.543 528.778C106.829 526.938 108.097 525.444 109.791 524.953C118.871 522.59 127.771 519.505 136.415 515.724C139.311 513.12 140 507.098 140 507.098L130.808 507Z" fill="#C9885B"/>
<path d="M105.066 520C104.708 522.305 105.828 524.596 108 526" stroke="white" stroke-linecap="round"/>
<path d="M97.0728 539.332C95.3923 527.2 123.275 515.446 131.311 515.003C139.347 514.56 167 567.535 167 567.535L160.614 572C160.614 572 132.304 546.095 130.486 533.799C118.538 539.036 97.0728 539.332 97.0728 539.332Z" fill="#44448C"/>
<g style="mix-blend-mode:multiply" opacity="0.05">
<path d="M99.2334 503C99.2334 503 101.61 492.38 100.85 485.213C100.682 481.285 98.9299 477.597 96 475C97.1716 478.416 98.032 481.933 98.5706 485.506C99.2334 490.148 99.2334 503 99.2334 503Z" fill="#262223"/>
</g>
<path d="M120.501 628.569C120.999 629.082 121.794 629.145 122.366 628.717C123.987 627.549 126.728 625.313 126.971 624.343C127.295 622.995 124.814 609.413 124.814 609.413C124.149 606.453 125.495 606.125 122.463 606.009C119.447 605.829 118.49 608.278 118.328 611.353C118.328 611.353 115.717 622.107 116.025 623.307C117.299 625.24 118.802 627.008 120.501 628.569Z" fill="#D84439"/>
<path d="M118 621.941L120.54 607.852L120.754 592L129 592.099L126.213 609.121L127.12 622.881C124.192 623.183 121.234 622.909 118.412 622.073L118 621.941Z" fill="#C9885B"/>
<path d="M127.748 592C127.748 592 134.751 566.34 134.988 556.748C135.225 547.156 132.026 531.298 127.466 531.007C122.521 530.717 118.76 539.259 119.012 544.669L120.493 591.903L127.748 592Z" fill="#4F4A97"/>
<path d="M126.236 428.035C124.479 424.681 120.981 418.678 114.681 420.363C78.8759 414.85 100.435 474 100.435 474L120.759 456.219C129.111 449.538 131.444 437.53 126.236 428.035Z" fill="black"/>
<g style="mix-blend-mode:multiply" opacity="0.1">
<path d="M115 431.18C89.9424 427.733 99.9902 475 99.9902 475C99.9902 475 114.628 440.77 115 431.18Z" fill="#262223"/>
</g>
<path d="M122.631 460.243L121.831 452.789L110.985 452L109.108 461.032C108.983 461.596 108.781 462.139 108.508 462.642L106 468.438C108.721 471.702 112.788 473.377 116.905 472.928C121.021 472.48 124.672 469.964 126.692 466.184L127 465.604C124.656 464.884 122.941 462.779 122.631 460.243Z" fill="#B77344"/>
<path opacity="0.1" d="M113.991 465.825C112.18 465.251 110.488 464.338 109 463.131C109.146 462.782 109.261 462.42 109.345 462.05L111.26 453L122.325 453.79L123 459.969C121.509 462.195 119.524 464.026 117.209 465.309C116.81 465.503 116.401 465.676 115.984 465.825C115.339 466.058 114.636 466.058 113.991 465.825Z" fill="#9E6A43"/>
<g style="mix-blend-mode:multiply" opacity="0.57">
<path d="M126.313 428.931C124.596 425.592 121.178 419.613 115.023 421.291C114.574 428.166 120.915 457 120.915 457C129.092 450.36 131.392 438.399 126.313 428.931Z" fill="#595959"/>
</g>
<path d="M115.546 462.993C116.208 463.042 116.866 462.847 117.408 462.441C117.774 462.165 118.186 461.856 118.446 461.613C121.526 458.494 123.477 454.321 123.954 449.826C124.087 448.507 123.93 447.173 123.497 445.93L122.337 442.536C122.108 440.605 122.337 438.039 120.811 436.87L114.829 432L106.65 443.77C106.067 444.447 105.584 445.213 105.216 446.043C104.086 448.641 102.164 452.164 103.4 454.648L103.568 454.972C106.023 459.635 110.533 462.655 115.546 462.993Z" fill="#C9885B"/>
<path d="M110.686 469.109C110.65 468.899 110.788 468.7 110.997 468.66L120.666 466.808C120.88 466.767 121.087 466.91 121.124 467.125L124.41 486.334C124.446 486.543 124.308 486.743 124.099 486.783L114.43 488.634C114.216 488.675 114.009 488.532 113.972 488.317L110.686 469.109Z" fill="white"/>
<path d="M111.374 468.349C111.337 468.14 111.475 467.94 111.684 467.899L121.311 466.029C121.525 465.987 121.732 466.13 121.769 466.345L125.09 485.472C125.126 485.681 124.989 485.881 124.78 485.922L115.153 487.792C114.939 487.834 114.732 487.692 114.695 487.476L111.374 468.349Z" fill="#434342"/>
<path d="M124.304 480.386C124.004 479.993 123.875 479.482 123.951 478.982C124.304 477.905 123.812 476.91 122.69 477.351C121.261 478.166 120.831 479.325 120.585 478.444C122.214 477.269 123.459 476.16 123.52 475.686C123.705 474.202 122.152 474.495 122.152 474.495C122.152 474.495 116.189 479.668 114.59 479.814C112.669 480.01 112.285 476.274 112.285 476.274C112.187 475.569 111.968 474.889 111.639 474.267C110.917 472.945 110.102 472.913 109.549 473.059C108.996 473.206 110.087 476.127 110.118 477.139L110.686 482.392C110.91 484.364 111.028 486.346 111.04 488.332C111.04 489.017 96.1312 501.091 91.9198 505.758C87.7085 510.424 91.3512 516.804 94.0409 517C94.7633 517 100.112 512.676 102.756 509.592C108.673 502.723 109.457 498.742 116.588 491.513C117.88 490.583 120.969 487.908 122.736 486.618C124.058 485.623 125.303 483.225 124.934 482.866C124.612 482.639 124.469 482.214 124.581 481.821C124.77 481.327 124.661 480.761 124.304 480.386Z" fill="#C9885B"/>
<path d="M111.017 472.193C111.123 472.731 111.642 473.083 112.181 472.983C112.72 472.883 113.078 472.368 112.983 471.828C112.889 471.288 112.378 470.925 111.837 471.013C111.286 471.115 110.92 471.641 111.017 472.193Z" fill="#D6D9DB"/>
<path d="M167.934 581C166.461 583.755 166.751 587.226 168.656 589.646C170.036 591.152 172.217 588.225 180.28 598C182.884 598 189.958 593.052 190.915 591.46C191.872 589.868 184.421 589.337 184.421 589.337L167.934 581Z" fill="#D84439"/>
<path d="M167.541 568L174.255 578.214L185 589.71C184.373 591.367 183.238 592.765 181.769 593.688C181.061 594.142 180.156 594.097 179.494 593.575C176.569 591.183 173.481 589.012 170.255 587.08C169.082 586.469 168.302 585.268 168.2 583.913C168.184 582.936 168.004 581.968 167.667 581.055C166.898 579.237 161 572.433 161 572.433L167.541 568Z" fill="#C9885B"/>
<path d="M169 589.654C170.87 591.074 172.591 592.695 174.133 594.49L176.283 597L177 596.3L172.247 589L169 589.654Z" fill="#D84439"/>
<path d="M371 604H383.268L388.206 613.959L393.39 614.841H395V616H387.44C386.384 615.987 385.419 615.361 384.925 614.367C382.13 608.982 376.809 605.637 371.031 605.633L371 604Z" fill="white"/>
<path d="M327 479.15L344.219 465L364.582 470.065C364.582 470.065 371.329 510.342 371.252 524.149C371.252 526.225 371.375 528.299 371.62 530.358C371.884 532.365 371.748 534.408 371.221 536.355C370.577 538.838 377.661 589.05 380.835 597.481C381.97 600.52 388.747 611.631 388.747 611.631L392.565 612.35C393.309 612.466 393.89 613.092 393.991 613.886C394.039 614.372 393.891 614.858 393.584 615.222C393.278 615.587 392.84 615.795 392.381 615.797H388.533C387.175 615.797 385.889 615.143 385.037 614.016L382.369 610.52C379.87 607.238 376.23 605.174 372.279 604.801C371.19 604.123 370.524 602.877 370.531 601.533C370.533 600.089 370.939 598.678 371.697 597.481C371.825 597.29 371.937 597.087 372.034 596.876C373.102 594.403 372.988 591.533 371.727 589.164C368.293 582.481 360.687 563.821 358.955 555.782C357.728 550.113 359.215 543.56 357.222 536.175C355.689 528.986 350.552 509.787 348.513 495.032L345.952 523.381C345.323 527.646 344.925 536.191 343.974 540.194C343.023 544.198 344.802 558.38 343.79 568.184C342.441 581.256 341.444 600.259 342.073 606.141C342.41 609.164 343.376 617.072 343.376 617.072L342.517 619H335.556L334.697 617.905C334.283 617.373 334.109 616.674 334.222 615.994C335.049 612.588 335.588 609.11 335.832 605.602C336.031 589.491 330.879 566.828 330.557 559.475C330.257 553.515 330.514 547.538 331.324 541.632C331.577 539.883 331.577 538.104 331.324 536.355C327.675 515.653 327 479.15 327 479.15Z" fill="#B77344"/>
<path d="M356.948 537.894C358.208 544.436 357.119 550.309 358.239 555.429C359.996 563.476 367.708 582.156 371.191 588.846C371.552 589.559 371.824 590.318 372 591.104C369.901 577.936 363.868 571.148 359.809 553.907C358.596 548.804 358.861 545.99 358.861 538.711C358.861 536.928 348.085 475 348.085 475C348.085 475 340.605 539.366 340.31 540.871C339.968 542.915 342.051 554.283 341.181 564.376C338.537 594.669 341.181 607.772 341.025 605.809C340.388 599.92 341.398 580.962 342.767 567.811C343.793 557.997 342.005 543.815 342.953 539.791C343.902 535.767 344.322 527.229 344.959 522.959L347.603 494.563C349.671 509.285 354.895 528.554 356.435 535.751C356.656 536.451 356.827 537.167 356.948 537.894Z" fill="#965C35"/>
<path d="M342.756 619.81H335.26C334.923 619.81 334.6 619.639 334.363 619.334C334.127 619.03 333.996 618.618 334 618.19H344C344.004 618.614 343.875 619.023 343.642 619.327C343.409 619.631 343.09 619.805 342.756 619.81Z" fill="white"/>
<path opacity="0.05" d="M343 617.15L342.179 619H335.527L335.248 618.608C335.006 618.304 334.935 617.884 335.062 617.508C335.189 617.132 335.495 616.858 335.864 616.79L339.688 616.053C340.441 615.913 341.216 616.052 341.886 616.445L343 617.15Z" fill="black"/>
<path d="M334.436 612.999C334.552 612.994 334.662 612.952 334.749 612.878C335.717 611.882 340.842 609.859 342.733 609.074C342.907 609.003 343.014 608.833 342.999 608.652C342.981 608.47 342.84 608.322 342.655 608.29C342.655 608.29 337.749 607.369 336.202 605.18C336.138 605.089 336.04 605.027 335.928 605.007C335.816 604.987 335.701 605.011 335.608 605.075C335.51 605.133 335.442 605.229 335.421 605.338C335.4 605.447 335.428 605.56 335.499 605.648C337.005 607.247 338.995 608.346 341.186 608.788C338.69 609.673 336.318 610.854 334.124 612.304C333.959 612.468 333.959 612.729 334.124 612.893C334.207 612.969 334.321 613.008 334.436 612.999Z" fill="white"/>
<path d="M343.564 619C343.801 618.992 343.992 618.809 344 618.581C343.942 617.294 343.386 616.074 342.442 615.158C341.412 614.279 340.037 613.87 338.67 614.036C337.286 614.024 335.958 614.566 335.008 615.531C334.289 616.404 333.933 617.502 334.01 618.611C334.05 618.809 334.23 618.951 334.439 618.951C334.648 618.951 334.828 618.809 334.867 618.611C334.809 617.719 335.092 616.837 335.662 616.13C336.476 615.319 337.607 614.874 338.779 614.904C339.904 614.768 341.035 615.094 341.896 615.801C342.656 616.57 343.094 617.581 343.127 618.641C343.158 618.849 343.345 619.002 343.564 619Z" fill="white"/>
<path d="M391.344 414.658L390 405.837L390.821 396.468C392.002 396.801 392.882 397.899 393.045 399.242L393.449 403.046L396.106 403.478L407.288 394.242C407.61 393.968 408.045 393.923 408.407 394.126C408.736 394.306 408.958 394.661 408.995 395.067C409.031 395.473 408.877 395.871 408.586 396.119L403.287 400.787L404.78 399.94C405.128 399.743 405.54 399.744 405.888 399.941C406.236 400.138 406.479 400.508 406.541 400.937C406.618 401.464 406.407 401.992 406.004 402.282L404.839 403.146L404.974 403.844C405.15 404.716 404.8 405.615 404.108 406.07L403.436 406.535C403.765 407.47 403.444 408.534 402.675 409.06L402.048 409.492C400.951 412.611 398.811 415.135 396.076 416.535L395.165 417L391.344 414.658Z" fill="#B77344"/>
<path d="M383 426.613L390.683 413L397 415.158L389.017 432L383 426.613Z" fill="#B77344"/>
<path d="M356.46 394.021C356.46 394.021 367.582 393.612 370.478 405.011L379.182 428.771L386.499 418.777L393 425.685L382.941 441.753C379.382 445.019 375.7 445.166 372.388 441.59L366.534 431.041L364.824 434.454C363.684 447.306 364.593 459.275 366.365 472.862L373.913 519.027C357.868 522.553 341.35 522.946 325.172 520.186C321.783 498.435 325.696 464.272 328.007 457.724C328.638 455.977 329.285 454.262 329.871 452.564C332.097 446.273 332.265 439.372 330.348 432.968L325.696 417.177L323 403.982C326.319 400.71 330.199 398.143 334.43 396.421C341.332 393.612 356.46 394.021 356.46 394.021Z" fill="white"/>
<path opacity="0.05" d="M328.561 416.349L327.222 455.68C328.072 457.718 329.742 459.26 331.783 459.891C333.517 460.58 335.466 460.328 336.987 459.218C338.507 458.108 339.404 456.284 339.38 454.346C339.194 425.438 334.103 398.529 335.457 397.049C336.812 395.57 336.438 427.942 343.802 434.445C345.125 444.201 346.199 454.948 346.729 465.468C349.344 484.41 347.258 494.003 346.355 498.344C345.872 500.703 343.983 502.465 341.685 502.701C337.481 503.156 329.37 503.53 324.7 500.327C321.586 498.165 318.114 495.807 316.153 490.93C314.783 486.052 323.08 466.102 323.392 460.46C324.591 439.86 324.777 424.527 328.561 416.349Z" fill="black"/>
<path d="M328.226 416.448L326.795 459.743C326.795 459.743 331.364 471.819 339.846 469.659C340.501 438.145 333.557 398.695 334.973 397.091C336.892 394.915 342.679 432.156 344.339 466.435C349.075 501.713 342.177 501.86 342.177 501.86C342.177 501.86 322.607 508.061 316.149 491.535C314.809 486.627 322.926 466.55 323.231 460.872C324.343 440.108 324.526 424.678 328.226 416.448Z" fill="white"/>
<path opacity="0.05" d="M316 485.043C317.23 479.919 319.485 473.317 321.031 468.128C322.367 467.131 324.047 466.773 325.652 467.142C328.191 467.635 330.383 467.996 332.197 468.275C334.354 470.036 337.166 470.671 339.83 470V469.064C339.83 469.064 346.785 481.036 344.561 487.342C332.228 493.813 317.877 486.636 316 485.043Z" fill="black"/>
<path d="M339.979 467.09C339.979 467.09 345.653 480.212 343.521 486.434C334.118 489.686 323.753 487.804 316 481.437C316 481.437 316.188 462.287 325.889 464.124C335.591 465.962 339.979 467.09 339.979 467.09Z" fill="white"/>
<path d="M323.235 452L335.456 462.611C336.831 462.692 339.597 462.114 340.441 462.611C340.426 464.923 341.316 467.144 342.91 468.776L346.16 470.638C347.989 471.569 348.192 471.826 347.879 473.03L342.801 470.847L340.581 469.241L343.066 471.794L345.848 473.399C346.356 473.683 346.555 474.327 346.301 474.86L345.957 475.599L345.238 476L340.956 475.599L336.487 473.335C336.487 473.335 334.924 472.789 331.502 467.058L319 457.426L323.235 452Z" fill="#E6B289"/>
<path d="M319.594 416.282C318.651 421.379 311.28 447.297 311.28 447.297C310.539 449.899 311.297 452.715 313.227 454.529L320.722 461L325.914 454.173L320.289 448.623C320.289 448.623 325.08 438.01 328.016 431.523C332.574 421.33 336.654 412.885 335.912 404.779L331.369 402.045C325.095 401.414 321.201 407.465 319.594 416.282Z" fill="white"/>
<path d="M350.684 351.395C350.684 351.395 363.408 345.04 368.77 359.458C373.352 371.758 364.447 397.507 353.358 395.931C336.265 393.5 350.684 351.395 350.684 351.395Z" fill="#38281A"/>
<path d="M353.656 384.242L353.332 394.021L356.39 394.413C357.951 398.242 359.153 402.24 359.977 406.343C360.638 411.233 347.012 413.547 342.337 397.884C337.662 382.221 346.747 378 346.747 378L353.656 384.242Z" fill="#B77344"/>
<path d="M347.684 378L355 384.26L354.687 393L354.483 392.885L343 385.837L343.172 383.208C344.355 381.193 345.885 379.427 347.684 378Z" fill="#965C35"/>
<path d="M363.941 366.618C363.123 369.39 365.621 374.042 364.85 376.685C363.434 380.384 361.651 383.916 359.531 387.222C358.719 388.705 357.314 389.723 355.707 389.994C354.686 390.045 353.673 389.78 352.793 389.232L342 382.569L343.28 362.987L360.641 356L362.738 358.399C364.14 360.023 364.744 362.239 364.372 364.397L363.941 366.618Z" fill="#B77344"/>
<path d="M361 356.254C361 356.254 358.516 362.956 352.628 364.994C348.036 366.625 347.942 373.718 344.115 372.658C342.553 383.485 346.896 387.741 344.225 397.802C341.554 407.863 343.897 419 343.897 419C343.897 419 328.652 410.309 328.043 385.524C327.621 368.272 330.339 361.798 335.462 355.406C340.083 349.961 347.275 347.745 353.987 349.699C357.054 350.846 359.57 353.199 361 356.254Z" fill="#473522"/>
<path d="M344.434 374.212C344.156 373.167 343.324 372.349 342.256 372.069C341.73 371.94 341.175 371.993 340.685 372.218C338.895 373.025 340.871 378.549 343.64 378.977C345.684 379.307 344.958 375.977 344.434 374.212Z" fill="#965C35"/>
<path d="M342.059 378.908C342.313 379.706 343.176 380.165 344.008 379.945C344.758 379.654 345.16 378.862 344.94 378.11C344.719 377.358 343.947 376.889 343.151 377.023C342.747 377.133 342.406 377.393 342.201 377.747C341.997 378.1 341.946 378.518 342.059 378.908Z" fill="white"/>
<path d="M362.05 370.87C362.006 370.952 361.973 371.04 361.95 371.13C361.973 371.04 362.006 370.952 362.05 370.87Z" fill="#D89C73"/>
<path d="M405.18 392.508L405.31 392.59H405.383C405.951 393.065 406.156 393.92 405.875 394.654L401.323 409.821C400.913 411.125 399.822 411.997 398.597 412L393.682 411.738C393.015 411.745 392.388 411.384 392 410.771L393.058 409.281L397.51 394.539C397.92 393.235 399.011 392.363 400.235 392.36L404.136 392.573L404.542 392V392.082L405.18 392.508Z" fill="#BD6A9E"/>
<path d="M403.395 391.262L398.472 391C397.241 390.996 396.14 391.869 395.728 393.179L391.168 408.346C390.916 408.884 390.949 409.535 391.254 410.037C391.559 410.538 392.085 410.808 392.62 410.738L397.543 411C398.77 410.997 399.862 410.125 400.273 408.821L404.833 393.654C405.083 393.119 405.051 392.472 404.75 391.972C404.449 391.471 403.928 391.199 403.395 391.262Z" fill="#3C3C3B"/>
<path d="M399.462 409L391 408.604L395.79 394L404 394.396L399.462 409Z" fill="white"/>
<path d="M403.863 401L401.933 402.195C400.857 402.855 400.296 404.094 400.516 405.324L399.628 405.795C399.188 406.009 398.94 406.478 399.013 406.956C399.049 407.311 399.25 407.631 399.557 407.821C399.864 408.012 400.243 408.052 400.584 407.932L404 406.737L403.863 401Z" fill="#E6B289"/>
<path opacity="0.05" d="M369.398 436L367 431.352C368.806 426.858 369.246 421.804 368.25 416.993L367 411L368.947 415.831C371.518 422.197 371.681 429.492 369.398 436Z" fill="black"/>
<path d="M375.265 616H373.735V611.203C373.734 609.402 372.97 607.676 371.612 606.407L371 605.815L373.243 605L378 605.815L377.337 606.471C375.998 607.748 375.252 609.473 375.265 611.267V616Z" fill="white"/>
<path d="M386.125 616C386.277 616.002 386.417 615.912 386.49 615.765L388.942 610.72C389.019 610.581 389.019 610.406 388.942 610.266C388.865 610.126 388.726 610.042 388.577 610.048L382.819 610.249L384.998 603.961C385.061 603.784 385.018 603.583 384.891 603.456C384.76 603.332 384.578 603.3 384.419 603.372L378.189 606.735L377.397 600.009C377.395 599.887 377.338 599.773 377.245 599.707L371.67 595.133C371.505 594.956 371.242 594.956 371.076 595.133C370.946 595.344 370.986 595.63 371.167 595.789L376.605 600.228L377.443 607.374C377.461 607.522 377.54 607.652 377.656 607.727C377.776 607.793 377.917 607.793 378.037 607.727L383.84 604.633L381.814 610.485C381.754 610.617 381.754 610.773 381.814 610.905C381.894 611.032 382.025 611.107 382.164 611.107L387.846 610.905L385.729 615.226C385.625 615.45 385.699 615.724 385.896 615.849C385.958 615.922 386.037 615.975 386.125 616Z" fill="white"/>
<path d="M371.345 605C371.448 605 371.548 604.968 371.628 604.909L377.643 600.825L382.641 599.82C382.758 599.798 382.861 599.734 382.926 599.642C382.992 599.551 383.015 599.439 382.99 599.332C382.971 599.223 382.902 599.126 382.801 599.065C382.699 599.004 382.575 598.985 382.457 599.012L377.459 600.033C377.392 600.042 377.328 600.068 377.276 600.109L371.179 604.238C370.978 604.382 370.941 604.647 371.095 604.832C371.153 604.915 371.242 604.974 371.345 605Z" fill="white"/>
<path opacity="0.05" d="M343 435.175C343 435.175 351.293 433.51 354.959 433.08C358.626 432.65 362.277 434.083 361.983 434.459C355.769 436.235 349.301 436.479 343 435.175Z" fill="black"/>
<path d="M59.2624 574C61.7313 575.064 63.939 576.673 65.7275 578.711L66.7788 579.929C67.0737 580.291 67.0737 580.816 66.7788 581.179C65.7118 582.573 50.6633 596.305 47.776 599.878C44.8887 603.451 39.9301 606.448 38 604.253C47.4151 588.646 49.3452 583.021 49.3452 583.021L59.2624 574Z" fill="#E18B09"/>
<path d="M46.6802 600.515C49.2821 597.253 63.1848 583.685 66.6958 580L67.7773 581.256C68.0742 581.63 68.0742 582.17 67.7773 582.544C66.7114 583.963 51.6802 597.922 48.7962 601.558C46.2257 604.82 41.2414 606.76 39 605.717C41.3354 605.488 44.5329 603.156 46.6802 600.515Z" fill="#E6E7E8"/>
<path d="M7 535.044L48.9232 584.839C48.9232 584.839 53.0379 585.989 58.0376 582.135C63.0373 578.281 64 574.605 64 574.605L31.7192 529.085L22.8066 520L7 535.044Z" fill="#8FD2EF"/>
<path d="M17 521.905C17 521.905 62.4202 568.28 57.0803 583C62.0083 579.17 63 575.486 63 575.486L31.2501 530.065L22.4925 521L17 521.905Z" fill="#88CBE2"/>
<path d="M33.0008 336.395C33.4041 341.133 32.4579 347.018 35.7774 350.177C44.6654 358.689 44.3241 369.777 50.5131 369.993C60.7041 370.326 69.8248 357.99 68.9406 345.056C63.7598 314.135 32.8147 334.284 33.0008 336.395Z" fill="black"/>
<path d="M64.4323 356L50.6373 362.728L50.2694 368.888C50.0702 372.293 49.4111 373.752 46.5448 375.373C46.5448 375.373 32.6578 385.716 40.291 391.309C51.0205 399.236 69 376.718 69 376.718C66.2757 370.172 64.7268 363.146 64.4323 356Z" fill="#C1855D"/>
<path d="M26.7519 397.421L20.0902 433.061L15.5789 453.335L14 458.969L14.3609 465L19.1579 458.06C19.1579 458.06 30.9023 415.315 30.9925 414.175C31.0827 413.035 34 396 34 396L26.7519 397.421Z" fill="#AF7751"/>
<path d="M21.3381 451L18.9989 458.907L14.0864 465.756L15.0377 472.264L5.24402 502.607C3.27621 508.724 1.89194 515.029 1.11132 521.43C0.544402 526.169 2.16446 530.907 5.47794 534.202L7.47411 536.203L21.0574 537L22.4142 523.984L51 459.688L21.3381 451Z" fill="#8FD2EF"/>
<path d="M32.7707 472.475L19.3377 517.207C18.5891 519.68 19.1031 522.38 20.7014 524.369L22.0651 526L51 459L32.7707 472.475Z" fill="#88CBE2"/>
<path d="M25.591 591C26.2546 595.039 11.2696 603.218 5.63669 606.958C4.8342 607.49 2.90513 611.645 14.495 610.914C21.1927 610.498 32.2887 604.664 32.7825 604.065C35.0974 601.173 33.3998 595.571 33.3998 595.571L25.591 591Z" fill="#E6E7E8"/>
<path d="M24.0442 588.695C24.7283 592.699 15.3689 600.87 6.94237 605.628C4.59476 606.973 4.6414 607.268 5.68306 607.99C6.72471 608.712 10.3472 609.483 15.6643 608.614C23.4378 607.301 24.2618 605.021 32.6106 601.591C35.7201 600.279 31.5379 592.272 33.73 589.483C35.9222 586.694 24.0442 588.695 24.0442 588.695Z" fill="#E18B09"/>
<path d="M25.1819 453L24.4377 467.54C24.2564 470.361 25.2792 473.117 27.2172 475.03C28.3961 476.162 29.1021 477.756 29.1766 479.453L27.8248 530.514C27.8248 530.514 20.8834 589.701 19 595.543C22.4479 599.297 32.8068 597.632 32.8068 597.632L40.7354 568.895C42.7556 561.111 45.4136 552.576 45.52 544.417L45.7022 535.409L52.5676 509.087C54.3699 503.122 55.6911 497.002 56.5168 490.794L57.1547 483.94C57.2627 482.671 57.6089 481.439 58.1724 480.317C59.8809 476.881 60.9148 473.104 61.2102 469.221L62 458.353L25.1819 453Z" fill="#A4DFFF"/>
<path d="M43.6182 533.994C48.7012 516.219 51.6058 497.85 52.2636 479.322C52.2636 479.322 36.2437 476.36 38.1423 461.109L63.7646 458H64L63.1841 468.84C62.879 472.713 61.8109 476.48 60.046 479.908C59.4639 481.026 59.1063 482.256 58.9948 483.521L58.3358 490.357C57.4829 496.549 56.118 502.654 54.2563 508.603L47.2584 534.873L47.1328 543.923C47.023 551.98 44.2772 560.557 42.1904 568.337L34 597C34 597 46.0188 559.109 43.6182 533.994Z" fill="#8FD2EF"/>
<path d="M52 463.609C51.5715 468.592 51.3408 476 51.3408 476C51.3408 476 41.1889 475.253 40.0682 465.851C38.9476 456.45 52 463.609 52 463.609Z" fill="#88CBE2"/>
<path d="M69.3447 377.322C69.3447 377.322 54.954 388.747 47.4763 387.033C43.9511 386.233 43.478 378.595 46.9879 376C46.5606 376.18 32.4751 380.521 30.7049 384.079C28.4501 388.743 27.0907 393.843 26.7066 399.078C27.2712 398.98 29.072 400.792 29.072 400.792C28.0495 405.003 26.7524 425.828 26.1267 428.799C23.4866 441.154 19.0458 457.116 19 458.96C20.4345 461.327 34.5658 474.988 62.1112 473.943C62.6122 473.923 63.0351 473.539 63.1336 473.013C65.3006 460.854 65.4838 451.143 67.7118 442.933C69.3476 436.791 71.7881 430.928 74.9606 425.518L78.44 418.859C83.9491 406.423 83.7202 400.906 81.6447 392.109C79.5693 383.312 69.3447 377.322 69.3447 377.322Z" fill="white"/>
<path opacity="0.1" d="M55.6904 373.712C54.0129 374.501 47.6475 375.965 46 374.074C46.3691 373.904 46.7165 373.683 47.0334 373.415C49.2052 371.77 49.8791 371.507 50.0289 368.48L50.3884 362.228L61.6663 358C61.7113 358.115 64.0477 369.796 55.6904 373.712Z" fill="#BA6536"/>
<path d="M59.5392 351.46C58.1234 343.494 54.7162 346.193 52.7248 343.445C48.1508 337.081 43.39 344.802 36 347.845C36 348.467 38.3026 359.868 38.8782 361.52C42.8144 372.595 42.3165 374.149 49.5976 372.382C56.8788 370.615 61.904 366.003 63.242 360.784C63.5842 359.427 65 353.439 65 353.439C63.6309 353.554 60.0837 354.454 59.5392 351.46Z" fill="#C1855D"/>
<path d="M59.7173 351.108C59.7173 351.108 61.2565 357.547 57.901 361.982C54.5455 366.418 50.205 364.167 47.4652 363.042C44.7254 361.916 40 363.389 40 363.389C40 363.389 41.5392 373.8 44.0173 375.571C46.4955 377.342 54.0838 373.238 57.8702 370.341C61.6567 367.444 64.1194 359.798 62.4879 353.591C60.8563 347.384 59.7173 351.108 59.7173 351.108Z" fill="black"/>
<path d="M40.0325 367.037L44.6546 366.025C45.2423 365.902 45.8282 366.238 45.9729 366.78C46.1049 367.322 45.7418 367.861 45.1592 367.988L40.5208 369C40.3255 368.336 40.1465 367.671 40 367.052L40.0325 367.037Z" fill="#AF7751"/>
<path d="M63.3763 347.775C62.6166 348.498 63.0841 357.966 64.0921 357.998C66.5903 358.11 67.686 353.594 67.9489 350.636C68.176 349.35 67.6317 348.047 66.5963 347.399C65.5608 346.751 64.2651 346.903 63.3763 347.775Z" fill="#AF7751"/>
<path d="M50.2049 427.064L60.0122 409C63.932 412.941 74.3591 417.474 78 417.654C78 417.654 58.0446 443.158 54.3727 441.959C50.7007 440.76 48.3303 442.189 42.6907 440.744C37.0511 439.299 21 427.951 21 427.951L22.9986 420.2L50.2049 427.064Z" fill="#C1855D"/>
<path d="M4.92293 398.124L23.4435 407.484C23.6738 407.599 23.8527 407.81 23.9407 408.07C24.0286 408.329 24.0185 408.616 23.9124 408.868L21.318 415L1 404.751L3.59445 398.636C3.69888 398.366 3.90242 398.157 4.15521 398.059C4.408 397.962 4.68667 397.985 4.92293 398.124Z" fill="#3C3C3B"/>
<path d="M3.46336 404.525C3.25649 404.424 3.16609 404.178 3.25835 403.967L5.13935 399.664C5.23738 399.44 5.50251 399.342 5.72233 399.45L22.0733 407.45C22.2802 407.551 22.3705 407.798 22.2783 408.009L20.3973 412.311C20.2993 412.535 20.0341 412.633 19.8143 412.525L3.46336 404.525Z" fill="white"/>
<path d="M0.863277 406.361C0.680456 406.271 0.600574 406.054 0.682101 405.867L1.25736 404.551C1.34399 404.353 1.57829 404.267 1.77255 404.362L21.0674 413.803C21.2503 413.892 21.3301 414.11 21.2486 414.296L20.6734 415.612C20.5867 415.81 20.3524 415.896 20.1582 415.801L0.863277 406.361Z" fill="#BCBEC0"/>
<path d="M2.70032 406.054L4.71362 407.02C4.95826 407.144 5.06607 407.448 4.95823 407.71C4.90147 407.833 4.79988 407.928 4.67613 407.972C4.55239 408.017 4.41681 408.007 4.29968 407.946L2.28638 406.98C2.04174 406.856 1.93393 406.552 2.04177 406.29C2.09853 406.167 2.20013 406.072 2.32387 406.028C2.44761 405.983 2.58319 405.993 2.70032 406.054Z" fill="white"/>
<path d="M7.60363 408.048L11.7618 410.132C11.8624 410.181 11.9401 410.274 11.9769 410.387C12.0136 410.5 12.0063 410.625 11.9567 410.732C11.8608 410.959 11.6153 411.062 11.4044 410.962L7.24629 408.86C7.03729 408.756 6.94343 408.489 7.03513 408.26C7.08413 408.149 7.17183 408.065 7.27866 408.025C7.38548 407.985 7.50251 407.993 7.60363 408.048Z" fill="white"/>
<path d="M5.72315 409.012L16.3872 414.483C17.2584 414.919 18.2893 414.596 18.819 413.72C19.1802 413.153 19.2595 412.425 19.0305 411.781L18.0487 408.912C17.7164 406.641 18.2148 405.232 19.7555 405L23.8641 413.786L24 424.397L23.7432 430L17.7013 427.795C14.8709 426.577 12.2998 424.732 10.1489 422.374C8.44202 421.446 8.83475 418.909 8.83475 418.909C9.06132 418.561 8.30608 417.251 8.26077 416.82L8.12482 415.809C8.04183 415.205 8.26819 414.6 8.71391 414.234C8.71391 414.234 5.40595 412.178 5.30022 411.548C5.04585 411.152 4.94737 410.66 5.0269 410.183C5.10644 409.706 5.35733 409.284 5.72315 409.012Z" fill="#C1855D"/>
<path d="M258.589 536L238.737 539.825L218.331 536.132C212.768 536.869 207.325 538.416 202.151 540.732L200 541.688L209.819 562C209.819 562 227.72 554.597 238.737 554.597C249.754 554.597 267.64 562 267.64 562L275 540.435C269.734 538.193 264.217 536.701 258.589 536Z" fill="#D89832"/>
<path opacity="0.07" d="M248.893 537.957L239.336 538.976L230.162 538.008C225.315 537.498 223.771 535 219 535.17C225.116 541.066 231.232 543.071 236.263 548.593C237.952 550.469 240.69 550.469 242.379 548.593C247.547 542.646 250.56 543.156 259 535C254.963 535.119 253.067 537.566 248.893 537.957Z" fill="black"/>
<path d="M239.626 544C232.034 543.859 224.734 541.065 219 536.106C225.433 539.184 232.49 540.745 239.626 540.669C251.931 540.669 259 536 259 536C253.877 541.142 246.898 544.023 239.626 544Z" fill="#2A2A2B"/>
<path d="M239 540.221C240.336 540.216 241.671 540.143 243 540V543.191C243 543.632 242.644 543.992 242.2 544H235.815C235.365 544 235 543.638 235 543.191V540C236.329 540.141 237.664 540.215 239 540.221Z" fill="#323233"/>
<path d="M235.844 540V542.324C235.844 542.451 235.896 542.573 235.988 542.662C236.081 542.75 236.205 542.798 236.333 542.794H241.681C241.943 542.794 242.156 542.583 242.156 542.324V540H243V543.191C243 543.632 242.644 543.992 242.2 544H235.815C235.365 544 235 543.638 235 543.191V540L235.844 540Z" fill="#DBDDD9"/>
<path d="M272.963 534.539C267.612 536.596 263.454 531.104 263.454 531.104C263.454 531.104 259.31 515.485 260.1 511.548C263.737 511.273 271.368 511.143 273.008 508C275.273 520.718 272.948 527.75 272.963 534.539Z" fill="#C9885B"/>
<path opacity="0.05" d="M269.408 534C266.546 532.884 262.676 530.89 262.676 530.89C261.888 528.665 261.326 526.355 261 524C265.953 525.675 271.915 532.469 269.408 534Z" fill="black"/>
<path d="M207.15 508.895C206.908 502.843 206.959 496.781 207.304 490.735C207.918 483.356 221.49 470 239.315 470C254.668 470 270.543 479.641 271.68 489.53C272.248 494.614 272.846 504.718 273 507.689C270.39 511.734 263.113 513.088 260.103 512.725C259.197 514.194 258 530.273 258.798 535.54C252.985 539.987 245.97 542.25 238.839 541.978C226.91 541.978 224.898 539.898 218.542 535.672C219.678 530.554 219.11 514.062 218.542 512.675C217.79 513.616 207.549 516.753 207.15 508.895Z" fill="#E84D4D"/>
<path opacity="0.05" d="M251.43 525.296L249.94 522.038C249.806 521.434 250.119 520.359 249.433 520.359C248.755 520.282 248.085 520.575 247.63 521.148V518.226C247.63 517.554 246.721 517 245.604 517H237.318C236.201 517 235.292 517.554 235.292 518.226V521.148C235.292 521.148 234.353 527.866 235.843 529.411C237.512 530.099 242.176 529.982 242.325 530.603C242.325 530.603 248.286 535.54 253.352 539C255.348 538.022 257.242 536.8 259 535.356C258.818 533.628 258.733 531.889 258.747 530.15L256.348 528.47C253.71 526.64 251.43 525.296 251.43 525.296Z" fill="black"/>
<path d="M245.194 527.031C250.525 528.868 258.153 525.472 263.989 527.277C270.882 529.393 269.074 530.558 271.341 533.102C273.256 535.268 271.188 540.207 262.61 539.993C254.033 539.78 248.58 536.104 241.717 532.79C234.855 529.475 235.039 521.189 245.194 527.031Z" fill="#C9885B"/>
<path d="M211.479 537.918C217.131 538.8 221 532.305 221 532.305C221 532.305 219.651 517.056 219.201 513.72C215.557 514.201 210.204 512.71 208 510C208.075 522.812 210.294 531.311 211.479 537.918Z" fill="#C9885B"/>
<path opacity="0.05" d="M212.05 532.88C211.724 534.782 212.966 536.307 216.305 535.947L217.112 535.279L217.826 534.628L218.447 533.994C219.002 533.465 219.521 532.892 220 532.28V532.194C220 532.194 219.379 524.895 218.82 519C215.637 521.896 212.625 529.658 212.05 532.88Z" fill="black"/>
<path d="M231.187 517.229C227.529 521.812 219.461 521.357 215.348 526.185C210.482 531.889 210.639 533.629 210.042 537.058C209.493 539.967 214.375 541.934 221.69 536.928C229.005 531.922 233.212 524.803 237.387 518.123C241.563 511.443 236.963 506.567 231.187 517.229Z" fill="#C9885B"/>
<path d="M228.496 520.809C230.772 517.357 231.628 512.922 233.08 511.054C234.18 509.703 238.917 508.103 240.796 508.002C241.517 507.968 242.211 508.301 242.676 508.903L247 514.356L232.606 523.994C232.606 523.994 226.204 524.278 228.496 520.809Z" fill="#B77344"/>
<path d="M237.101 509.006H245.868C246.962 508.919 247.916 509.797 248 510.969V526.048C247.908 527.213 246.956 528.082 245.868 527.994H236.58C235.395 527.994 235 527.131 235 526.048V510.969C235.092 509.815 236.021 508.947 237.101 509.006Z" fill="#D1D3D4"/>
<path d="M237.111 512.012H245.87C246.921 511.893 247.868 512.691 248 513.805V527.212C247.861 528.319 246.916 529.107 245.87 528.988H236.591C236.146 529.022 235.71 528.842 235.404 528.498C235.098 528.154 234.955 527.681 235.013 527.212V513.805C235.152 512.709 236.074 511.921 237.111 512.012Z" fill="white"/>
<path d="M237 513.36C237.566 513.36 238 513.66 238 514C238 514.34 237.566 514.64 237 514.64C236.434 514.64 236 514.36 236 514C236 513.64 236.453 513.36 237 513.36Z" fill="#2A1B40"/>
<path d="M231.846 514.426C232.437 514.373 233.028 514.521 233.54 514.849C235.957 516.067 244.64 521.395 246.457 521.226C248.52 521.023 247.643 518.097 247.643 518.097C247.613 517.31 247.718 516.524 247.951 515.779C248.49 514.189 249.336 513.969 249.952 514.003C250.568 514.037 250.322 515.965 250.46 517.065L252 523.104L249.552 531.444L242.654 533C242.547 532.29 238.574 531.765 236.142 530.547C234.602 529.752 233.909 527.908 234.248 527.435C234.481 527.014 234.481 526.485 234.248 526.064C233.949 525.451 233.949 524.715 234.248 524.102C234.47 523.708 234.47 523.21 234.248 522.816C233.694 521.717 234.109 520.194 235.387 520.465C237.05 521.074 238.282 522.427 237.851 520.753C236.403 519.619 231.384 516.659 231.091 515.678C230.891 514.984 230.968 514.595 231.846 514.426Z" fill="#C9885B"/>
<path d="M252.02 484H227.98C226.334 484 225 482.64 225 480.962V478.099C225 476.509 225.671 476 227.309 476H253.705C254.414 476 254.991 476.581 255 477.304V480.93C255.008 481.742 254.698 482.522 254.138 483.099C253.579 483.676 252.816 484 252.02 484Z" fill="#B77344"/>
<path d="M248.877 490.696L243.416 494.881C240.944 496.373 237.919 496.373 235.446 494.881L230.289 490.663C229.39 489.929 228.799 488.844 228.647 487.646L227.126 479.13C226.061 471.117 231.902 459 239.507 459H239.386C246.9 459 252.832 470.955 251.904 478.919L250.596 487.517C250.464 488.786 249.841 489.938 248.877 490.696Z" fill="#C9885B"/>
<path d="M234 470.236C234 470.236 239.931 474.559 252.416 475C254.507 473.478 250.309 465 250.309 465L234 470.236Z" fill="#B77344"/>
<path d="M252.224 456.758C250.202 451.293 245.101 447.78 239.525 448.011H239.369C235.151 448.011 231.463 447.847 226.918 453.341C221.798 459.554 224.973 472.029 224.973 472.029L226.794 479.746C226.826 479.894 226.952 480 227.097 480C227.243 480 227.369 479.894 227.401 479.746C227.588 478.053 227.65 476.347 227.588 474.645C228.855 473.853 230.053 472.945 231.167 471.93C235.416 473.353 244.816 476.1 248.131 472.911C247.415 471.816 250.419 472.911 250.419 472.911C250.419 472.911 250.761 475.838 251.275 479.582C251.275 479.808 251.449 479.991 251.664 479.991C251.879 479.991 252.053 479.808 252.053 479.582L253.531 472.078C254.458 466.943 254.005 461.638 252.224 456.758Z" fill="black"/>
<path d="M255.263 595L253.1 603.611C252.79 604.845 253.215 606.155 254.174 606.923L262.951 614.01C266.289 616.695 270.083 618.668 274.125 619.823C275.775 620.287 277.535 619.825 278.793 618.597C279.531 617.883 279.966 616.881 279.998 615.821C280.03 614.76 279.657 613.73 278.964 612.967L268.445 601.375L255.263 595Z" fill="#005274"/>
<path d="M274.7 617.369C270.661 616.195 266.867 614.195 263.527 611.477L253.194 603L253.1 603.386C252.79 604.637 253.215 605.965 254.174 606.743L262.951 613.928C266.289 616.65 270.083 618.65 274.125 619.82C275.775 620.291 277.535 619.823 278.793 618.578C279.627 617.764 280.068 616.582 279.991 615.372C279.805 615.657 279.151 618.175 274.7 617.369Z" fill="white"/>
<path d="M275.483 540.238C273.798 539.76 272.001 540.008 270.491 540.928C268.98 541.848 267.881 543.364 267.437 545.139L265.744 551.951L254 598.116L258.241 602.592L271.351 603L283.095 556.835L283.607 554.842C284.395 551.768 283.988 548.491 282.475 545.733C280.963 542.975 278.47 540.963 275.545 540.14L275.483 540.238Z" fill="#D89832"/>
<path opacity="0.07" d="M266 551L254 597.476L258.333 602L266 551Z" fill="black"/>
<path d="M222.759 596L224.9 604.64C225.21 605.875 224.786 607.188 223.83 607.956L215.003 615.037C211.67 617.719 207.882 619.684 203.849 620.824C202.203 621.286 200.451 620.824 199.195 619.597C198.461 618.88 198.031 617.875 198.002 616.813C197.972 615.751 198.347 614.721 199.04 613.959L209.557 602.351L222.759 596Z" fill="#005274"/>
<path d="M203.251 618.338C207.286 617.167 211.076 615.166 214.417 612.444L224.806 604L224.9 604.388C225.21 605.647 224.785 606.983 223.827 607.766L215.055 614.927C211.714 617.658 207.916 619.66 203.873 620.821C202.223 621.292 200.466 620.821 199.207 619.571C198.37 618.748 197.928 617.552 198.01 616.329C198.15 616.599 198.803 619.132 203.251 618.338Z" fill="white"/>
<path d="M202.53 540.228C206.046 539.263 209.647 541.45 210.591 545.124L212.337 552.028L224 598.185L219.712 602.641L206.553 603L194.905 556.859L194.391 554.852C193.602 551.774 194.017 548.494 195.545 545.737C197.072 542.98 199.586 540.974 202.53 540.163V540.228Z" fill="#D89832"/>
<path opacity="0.07" d="M212 551L224 597.495L219.588 602L212 551Z" fill="black"/>
<path d="M157.143 314.357C143.423 314.357 134.015 323.618 134.015 336.554C134.015 349.539 143.325 358.898 156.947 358.898C160.426 358.898 164.493 358.114 167.482 356.595L166.404 353.459C163.513 354.978 159.936 355.615 156.947 355.615C145.334 355.615 137.592 347.775 137.592 336.554C137.592 325.431 145.432 317.591 157.143 317.591C168.707 317.591 176.645 324.941 176.645 335.917C176.645 342.042 174.979 345.57 172.088 345.57C170.569 345.57 169.295 344.639 169.295 342.042V324.402H165.032V328.371C163.023 325.627 159.838 324.206 156.065 324.206C149.107 324.206 144.06 329.4 144.06 336.701C144.06 344.002 149.107 349.294 156.065 349.294C160.181 349.294 163.415 347.677 165.375 344.639C165.963 347.628 168.119 349.294 171.255 349.294C176.792 349.294 179.977 344.198 179.977 335.868C179.977 323.177 170.569 314.357 157.143 314.357ZM156.751 345.472C151.851 345.472 148.421 341.993 148.421 336.701C148.421 331.36 151.851 327.979 156.751 327.979C161.504 327.979 165.13 331.262 165.13 336.701C165.13 342.14 161.504 345.472 156.751 345.472Z" fill="black"/>
</svg>
