<svg width="31" height="31" viewBox="0 0 31 31" fill="none" xmlns="http://www.w3.org/2000/svg">
<path fill-rule="evenodd" clip-rule="evenodd" d="M3.64706 27.353H20.7396C20.9769 27.3456 21.1881 27.2008 21.2806 26.9822C21.3763 26.7866 21.3601 26.5547 21.238 26.3744C20.4792 25.2428 20.0692 23.9134 20.0588 22.551V17.7916L24.9216 16.4118L29.0124 17.6032C29.1942 17.6547 29.3896 17.6188 29.5412 17.5059C29.6942 17.3911 29.7843 17.211 29.7843 17.0196V12.1569C29.7837 11.8902 29.749 11.6246 29.681 11.3667C29.5365 10.8486 29.2625 10.3758 28.8847 9.99298C28.3146 9.43077 27.5458 9.11623 26.7451 9.11769H3.64706C3.49033 9.11751 3.33383 9.1297 3.17902 9.15416C1.69917 9.38481 0.607954 10.6592 0.607847 12.1569V24.3138C0.59841 24.4372 0.59841 24.5611 0.607847 24.6845C0.796149 26.2168 2.1033 27.3645 3.64706 27.353ZM3.36138 10.3334C3.4565 10.3271 3.55194 10.3271 3.64706 10.3334H26.7451C27.2277 10.3322 27.6911 10.5223 28.0337 10.8622C28.2562 11.0931 28.419 11.3747 28.5078 11.6828C28.546 11.838 28.5664 11.9971 28.5686 12.1569V16.2112L25.0857 15.1961C24.9783 15.166 24.8648 15.166 24.7575 15.1961L19.2869 16.7522C19.0162 16.8279 18.8328 17.0792 18.8431 17.36V22.5814C18.8419 22.9886 18.8744 23.3953 18.9404 23.7971C19.0613 24.6109 19.3095 25.4006 19.6759 26.1373H3.64706C2.71957 26.144 1.93481 25.4534 1.82353 24.5326V24.3138V12.1569C1.81236 11.2516 2.46715 10.4751 3.36138 10.3334Z" fill="#C90404"/>
<path fill-rule="evenodd" clip-rule="evenodd" d="M6.68628 24.3138H19.5422C19.7239 24.3079 19.8933 24.2209 20.0041 24.0768C20.1209 23.9412 20.1721 23.7611 20.1439 23.5844C20.088 23.2428 20.0595 22.8973 20.0588 22.5511V17.7917L24.9216 16.4119L25.9731 16.734C26.155 16.7856 26.3504 16.7496 26.502 16.6368C26.655 16.522 26.7451 16.3418 26.7451 16.1505V15.1962C26.7451 14.8605 26.473 14.5884 26.1373 14.5884C25.1302 14.5884 24.3137 13.7719 24.3137 12.7648C24.3137 12.4291 24.0416 12.157 23.7059 12.157H6.68628C6.35058 12.157 6.07844 12.4291 6.07844 12.7648C6.07844 13.7719 5.26201 14.5884 4.25491 14.5884C3.9192 14.5884 3.64706 14.8605 3.64706 15.1962V21.2746C3.64706 21.6103 3.9192 21.8825 4.25491 21.8825C5.26201 21.8825 6.07844 22.6989 6.07844 23.706C6.07844 24.0417 6.35058 24.3138 6.68628 24.3138ZM18.8431 23.0982H7.23334C6.98983 21.9042 6.05673 20.9711 4.86275 20.7276V15.7433C6.05673 15.4998 6.98983 14.5666 7.23334 13.3727H23.1588C23.3273 14.154 23.7968 14.8376 24.4657 15.2752L19.2869 16.7523C19.0162 16.828 18.8328 17.0793 18.8431 17.3601V22.5754V23.0982Z" fill="#C90404"/>
<path fill-rule="evenodd" clip-rule="evenodd" d="M10.9412 18.2354C10.9412 20.5853 12.8462 22.4903 15.1961 22.4903C17.546 22.4903 19.451 20.5853 19.451 18.2354C19.451 15.8855 17.546 13.9805 15.1961 13.9805C12.8462 13.9805 10.9412 15.8855 10.9412 18.2354ZM12.1569 18.2354C12.1569 16.5569 13.5176 15.1962 15.1961 15.1962C16.8746 15.1962 18.2353 16.5569 18.2353 18.2354C18.2353 19.9139 16.8746 21.2746 15.1961 21.2746C13.5176 21.2746 12.1569 19.9139 12.1569 18.2354Z" fill="#C90404"/>
<path fill-rule="evenodd" clip-rule="evenodd" d="M3.64706 27.353H20.7396C20.9769 27.3456 21.1881 27.2008 21.2806 26.9822C21.3763 26.7866 21.3601 26.5547 21.238 26.3744C20.4792 25.2428 20.0692 23.9134 20.0588 22.551V17.7916L24.9216 16.4118L29.0124 17.6032C29.1942 17.6547 29.3896 17.6188 29.5412 17.5059C29.6942 17.3911 29.7843 17.211 29.7843 17.0196V12.1569C29.7837 11.8902 29.749 11.6246 29.681 11.3667C29.5365 10.8486 29.2625 10.3758 28.8847 9.99298C28.3146 9.43077 27.5458 9.11623 26.7451 9.11769H3.64706C3.49033 9.11751 3.33383 9.1297 3.17902 9.15416C1.69917 9.38481 0.607954 10.6592 0.607847 12.1569V24.3138C0.59841 24.4372 0.59841 24.5611 0.607847 24.6845C0.796149 26.2168 2.1033 27.3645 3.64706 27.353ZM3.36138 10.3334C3.4565 10.3271 3.55194 10.3271 3.64706 10.3334H26.7451C27.2277 10.3322 27.6911 10.5223 28.0337 10.8622C28.2562 11.0931 28.419 11.3747 28.5078 11.6828C28.546 11.838 28.5664 11.9971 28.5686 12.1569V16.2112L25.0857 15.1961C24.9783 15.166 24.8648 15.166 24.7575 15.1961L19.2869 16.7522C19.0162 16.8279 18.8328 17.0792 18.8431 17.36V22.5814C18.8419 22.9886 18.8744 23.3953 18.9404 23.7971C19.0613 24.6109 19.3095 25.4006 19.6759 26.1373H3.64706C2.71957 26.144 1.93481 25.4534 1.82353 24.5326V24.3138V12.1569C1.81236 11.2516 2.46715 10.4751 3.36138 10.3334Z" fill="#C90404"/>
<path fill-rule="evenodd" clip-rule="evenodd" d="M6.68628 24.3138H19.5422C19.7239 24.3079 19.8933 24.2209 20.0041 24.0768C20.1209 23.9412 20.1721 23.7611 20.1439 23.5844C20.088 23.2428 20.0595 22.8973 20.0588 22.5511V17.7917L24.9216 16.4119L25.9731 16.734C26.155 16.7856 26.3504 16.7496 26.502 16.6368C26.655 16.522 26.7451 16.3418 26.7451 16.1505V15.1962C26.7451 14.8605 26.473 14.5884 26.1373 14.5884C25.1302 14.5884 24.3137 13.7719 24.3137 12.7648C24.3137 12.4291 24.0416 12.157 23.7059 12.157H6.68628C6.35058 12.157 6.07844 12.4291 6.07844 12.7648C6.07844 13.7719 5.26201 14.5884 4.25491 14.5884C3.9192 14.5884 3.64706 14.8605 3.64706 15.1962V21.2746C3.64706 21.6103 3.9192 21.8825 4.25491 21.8825C5.26201 21.8825 6.07844 22.6989 6.07844 23.706C6.07844 24.0417 6.35058 24.3138 6.68628 24.3138ZM18.8431 23.0982H7.23334C6.98983 21.9042 6.05673 20.9711 4.86275 20.7276V15.7433C6.05673 15.4998 6.98983 14.5666 7.23334 13.3727H23.1588C23.3273 14.154 23.7968 14.8376 24.4657 15.2752L19.2869 16.7523C19.0162 16.828 18.8328 17.0793 18.8431 17.3601V22.5754V23.0982Z" fill="#C90404"/>
<path fill-rule="evenodd" clip-rule="evenodd" d="M28.3559 11.0385C28.1979 11.0364 28.0463 10.9758 27.9304 10.8683C27.5887 10.5262 27.1252 10.3338 26.6418 10.3334H24.4414C24.2234 10.3343 24.0216 10.2183 23.9126 10.0295L22.162 6.99028C21.5958 7.1779 20.987 7.19481 20.4114 7.03891C19.8357 6.88552 19.3179 6.56635 18.9222 6.12107L11.7618 10.2544C11.6685 10.3054 11.5641 10.3325 11.4578 10.3334H5.37942C5.1068 10.3306 4.86939 10.1467 4.79862 9.8834C4.72784 9.62012 4.84102 9.34193 5.0755 9.20283L5.22138 9.11773L19.9008 0.638321C20.5996 0.235818 21.4297 0.127531 22.2083 0.337299C22.987 0.547068 23.6503 1.05769 24.0524 1.75675L28.9151 10.1268C29.0786 10.4052 28.9959 10.7629 28.7267 10.9413C28.6168 11.0128 28.4867 11.0469 28.3559 11.0385ZM10.9412 18.2354C10.9412 20.5853 12.8462 22.4903 15.1961 22.4903C17.546 22.4903 19.451 20.5853 19.451 18.2354C19.451 15.8855 17.546 13.9805 15.1961 13.9805C12.8462 13.9805 10.9412 15.8855 10.9412 18.2354ZM12.1569 18.2354C12.1569 16.5569 13.5176 15.1962 15.1961 15.1962C16.8746 15.1962 18.2353 16.5569 18.2353 18.2354C18.2353 19.9139 16.8746 21.2746 15.1961 21.2746C13.5176 21.2746 12.1569 19.9139 12.1569 18.2354ZM26.6175 9.11773H24.7939L22.94 5.90832C22.8598 5.76764 22.7268 5.66478 22.5704 5.62256C22.4141 5.58034 22.2474 5.60224 22.1073 5.68342C21.6895 5.92424 21.1934 5.9898 20.7275 5.86577C20.2604 5.74004 19.8625 5.43393 19.6212 5.01479C19.5407 4.87389 19.4072 4.77102 19.2504 4.72911C19.0943 4.69043 18.9293 4.71213 18.7884 4.78989L11.2937 9.11773H7.64667L20.5086 1.69597C21.38 1.19595 22.4917 1.49493 22.9947 2.3646L26.8788 9.11773H26.6175Z" fill="#C90404"/>
<path fill-rule="evenodd" clip-rule="evenodd" d="M11.4578 10.3332H24.4414C24.6529 10.3277 24.8462 10.2126 24.952 10.0293C25.0605 9.84126 25.0605 9.60955 24.952 9.42148L22.9218 5.90815C22.8416 5.76747 22.7085 5.66461 22.5522 5.62239C22.3959 5.58016 22.2291 5.60207 22.089 5.68325C21.6713 5.92406 21.1752 5.98963 20.7092 5.8656C20.2422 5.73987 19.8443 5.43376 19.6029 5.01462C19.5224 4.87371 19.3889 4.77085 19.2322 4.72893C19.076 4.69025 18.911 4.71196 18.7702 4.78972L11.1357 9.19658C10.8951 9.33373 10.7776 9.61614 10.85 9.88344C10.9233 10.1565 11.1753 10.3429 11.4578 10.3332ZM23.3898 9.11756H13.7251L18.9404 6.12089C19.3361 6.56618 19.854 6.88535 20.4296 7.03874C21.003 7.19633 21.6104 7.1794 22.1741 6.99011L23.3898 9.11756ZM24.9216 30.3921C24.8672 30.4009 24.8118 30.4009 24.7574 30.3921C23.7076 30.0967 22.7293 29.5899 21.8823 28.9029C21.6939 28.7509 21.5176 28.605 21.3474 28.4409C20.9817 28.0923 20.6499 27.7096 20.3567 27.2981C20.2979 27.2255 20.245 27.1483 20.1986 27.0672C19.5276 26.089 19.0889 24.9705 18.9161 23.797C18.8501 23.3951 18.8176 22.9885 18.8188 22.5813V17.3599C18.8084 17.0791 18.9919 16.8278 19.2625 16.7521L24.7331 15.196C24.8405 15.1659 24.954 15.1659 25.0614 15.196L30.532 16.7521C30.8026 16.8278 30.9861 17.0791 30.9757 17.3599V22.5752C30.9733 26.2021 28.5714 29.3899 25.0857 30.3921C25.0313 30.4009 24.9759 30.4009 24.9216 30.3921ZM20.0588 22.5752V17.8158L24.9216 16.4117L29.7843 17.8158V22.5995C29.7681 25.6167 27.8015 28.2766 24.9216 29.1764C24.0995 28.915 23.3344 28.5005 22.6665 27.9546C22.6326 27.9264 22.5984 27.8985 22.5639 27.8704C22.45 27.7774 22.3333 27.6823 22.2167 27.5656C21.9002 27.2655 21.6132 26.9358 21.3596 26.5809L21.2745 26.4593L21.238 26.3985C20.4792 25.267 20.0692 23.9376 20.0588 22.5752Z" fill="#C90404"/>
<path d="M24.3137 24.9215C24.1522 24.9224 23.9969 24.859 23.8822 24.7452L22.3626 23.2256C22.1242 22.9872 22.1242 22.6008 22.3626 22.3624C22.6009 22.1241 22.9873 22.1241 23.2257 22.3624L24.3137 23.4565L26.9214 20.8428C27.1597 20.6045 27.5462 20.6045 27.7845 20.8428C28.0229 21.0812 28.0229 21.4676 27.7845 21.706L24.7453 24.7452C24.6306 24.859 24.4753 24.9224 24.3137 24.9215Z" fill="#C90404"/>
</svg>
