<svg width="29" height="29" viewBox="0 0 29 29" fill="none" xmlns="http://www.w3.org/2000/svg">
<path fill-rule="evenodd" clip-rule="evenodd" d="M4.41305 0H24.5869C27.0203 0 28.9999 1.97954 29 4.41306V18.2826C29 20.5017 27.3533 22.3439 25.2174 22.6515V28.3695C25.2174 28.6242 25.0636 28.855 24.8278 28.9521C24.7496 28.9836 24.6676 29 24.5869 29C24.4231 29 24.2616 28.9357 24.1406 28.8159L18.0216 22.6956H4.41305C1.97954 22.6956 0 20.7161 0 18.2826V4.41306C0 1.97954 1.97954 0 4.41305 0ZM24.5869 21.4347C26.3243 21.4347 27.739 20.0213 27.739 18.2826V4.41306C27.739 2.67436 26.3243 1.26091 24.5869 1.26091H4.41305C2.6756 1.26091 1.26091 2.6743 1.26091 4.41306V18.2826C1.26091 20.0213 2.6756 21.4347 4.41305 21.4347H18.2825C18.4502 21.4347 18.6104 21.5016 18.7289 21.6188L23.9564 26.8476V22.0652C23.9564 21.7172 24.2389 21.4347 24.5869 21.4347Z" fill="#C90404"/>
<path fill-rule="evenodd" clip-rule="evenodd" d="M13 17C13 15.8973 13.8973 15 15 15C16.1027 15 17 15.8973 17 17C17 18.1027 16.1027 19 15 19C13.8973 19 13 18.1027 13 17ZM14.3333 17C14.3333 17.3667 14.632 17.6667 15 17.6667C15.368 17.6667 15.6667 17.3667 15.6667 17C15.6667 16.6333 15.368 16.3333 15 16.3333C14.632 16.3333 14.3333 16.6333 14.3333 17Z" fill="#C90404"/>
<path fill-rule="evenodd" clip-rule="evenodd" d="M14.1249 4C14.6437 4 15.1438 4.2175 15.4976 4.59748C15.8513 4.97752 16.0327 5.49128 15.9951 6.00872L15.4563 12.1862C15.3851 13.1987 14.5249 14 13.4998 14C12.466 14 11.6059 13.1988 11.5334 12.1763L11.0046 6.01751C10.9683 5.48999 11.1496 4.97623 11.5034 4.59748C11.8572 4.2175 12.356 4 12.8748 4H14.1249ZM14.2099 12.0888L14.75 5.90999C14.7613 5.74376 14.7025 5.57624 14.5825 5.44874C14.4625 5.32124 14.3 5.24999 14.1249 5.24999H12.8747C12.6997 5.24999 12.5372 5.32124 12.4172 5.44874C12.2972 5.57624 12.2385 5.74376 12.2509 5.92001L12.7785 12.0788C12.8061 12.46 13.1173 12.75 13.4899 12.75C13.8712 12.75 14.1837 12.46 14.2099 12.0888Z" fill="#C90404"/>
</svg>
